{
	"asset":{
		"generator":"Khronos glTF Blender I/O v3.6.27",
		"version":"2.0"
	},
	"extensionsUsed":[
		"KHR_materials_specular",
		"KHR_materials_ior"
	],
	"scene":0,
	"scenes":[
		{
			"extras":{
				"blosm":{
					"defaultLevels":[
						{
							"levels":4,
							"weight":10
						},
						{
							"levels":5,
							"weight":40
						},
						{
							"levels":6,
							"weight":10
						}
					]
				}
			},
			"name":"Scene",
			"nodes":[
				0
			]
		}
	],
	"nodes":[
		{
			"mesh":0,
			"name":"housing"
		}
	],
	"materials":[
		{
			"doubleSided":true,
			"extensions":{
				"KHR_materials_specular":{
					"specularColorFactor":[
						2.371357614441398,
						2.371357614441398,
						2.371357614441398
					]
				},
				"KHR_materials_ior":{
					"ior":1.4500000476837158
				}
			},
			"name":"housing",
			"pbrMetallicRoughness":{
				"baseColorFactor":[
					0.021979155018925667,
					0.021979155018925667,
					0.021979155018925667,
					1
				],
				"roughnessFactor":0.30000001192092896
			}
		},
		{
			"doubleSided":true,
			"extensions":{
				"KHR_materials_specular":{
					"specularColorFactor":[
						2.371357614441398,
						2.371357614441398,
						2.371357614441398
					]
				},
				"KHR_materials_ior":{
					"ior":1.4500000476837158
				}
			},
			"name":"housing_inside",
			"pbrMetallicRoughness":{
				"baseColorFactor":[
					0.800000011920929,
					0.800000011920929,
					0.800000011920929,
					1
				],
				"roughnessFactor":0.30000001192092896
			}
		}
	],
	"meshes":[
		{
			"name":"Cube.001",
			"primitives":[
				{
					"attributes":{
						"POSITION":0,
						"NORMAL":1,
						"TEXCOORD_0":2,
						"TEXCOORD_1":3,
						"TANGENT":4
					},
					"indices":5,
					"material":0
				},
				{
					"attributes":{
						"POSITION":6,
						"NORMAL":7,
						"TEXCOORD_0":8,
						"TEXCOORD_1":9,
						"TANGENT":10
					},
					"indices":11,
					"material":1
				}
			]
		}
	],
	"accessors":[
		{
			"bufferView":0,
			"componentType":5126,
			"count":46,
			"max":[
				0.25,
				0.25,
				0.09999999403953552
			],
			"min":[
				-0.25,
				-0.25,
				-0.09999999403953552
			],
			"type":"VEC3"
		},
		{
			"bufferView":1,
			"componentType":5126,
			"count":46,
			"type":"VEC3"
		},
		{
			"bufferView":2,
			"componentType":5126,
			"count":46,
			"type":"VEC2"
		},
		{
			"bufferView":3,
			"componentType":5126,
			"count":46,
			"type":"VEC2"
		},
		{
			"bufferView":4,
			"componentType":5126,
			"count":46,
			"type":"VEC4"
		},
		{
			"bufferView":5,
			"componentType":5123,
			"count":78,
			"type":"SCALAR"
		},
		{
			"bufferView":6,
			"componentType":5126,
			"count":20,
			"max":[
				0.24422651529312134,
				0.24422651529312134,
				0.09999999403953552
			],
			"min":[
				-0.24422651529312134,
				-0.24422651529312134,
				-0.09422650188207626
			],
			"type":"VEC3"
		},
		{
			"bufferView":7,
			"componentType":5126,
			"count":20,
			"type":"VEC3"
		},
		{
			"bufferView":8,
			"componentType":5126,
			"count":20,
			"type":"VEC2"
		},
		{
			"bufferView":9,
			"componentType":5126,
			"count":20,
			"type":"VEC2"
		},
		{
			"bufferView":10,
			"componentType":5126,
			"count":20,
			"type":"VEC4"
		},
		{
			"bufferView":11,
			"componentType":5123,
			"count":30,
			"type":"SCALAR"
		}
	],
	"bufferViews":[
		{
			"buffer":0,
			"byteLength":552,
			"byteOffset":0,
			"target":34962
		},
		{
			"buffer":0,
			"byteLength":552,
			"byteOffset":552,
			"target":34962
		},
		{
			"buffer":0,
			"byteLength":368,
			"byteOffset":1104,
			"target":34962
		},
		{
			"buffer":0,
			"byteLength":368,
			"byteOffset":1472,
			"target":34962
		},
		{
			"buffer":0,
			"byteLength":736,
			"byteOffset":1840,
			"target":34962
		},
		{
			"buffer":0,
			"byteLength":156,
			"byteOffset":2576,
			"target":34963
		},
		{
			"buffer":0,
			"byteLength":240,
			"byteOffset":2732,
			"target":34962
		},
		{
			"buffer":0,
			"byteLength":240,
			"byteOffset":2972,
			"target":34962
		},
		{
			"buffer":0,
			"byteLength":160,
			"byteOffset":3212,
			"target":34962
		},
		{
			"buffer":0,
			"byteLength":160,
			"byteOffset":3372,
			"target":34962
		},
		{
			"buffer":0,
			"byteLength":320,
			"byteOffset":3532,
			"target":34962
		},
		{
			"buffer":0,
			"byteLength":60,
			"byteOffset":3852,
			"target":34963
		}
	],
	"buffers":[
		{
			"byteLength":3912,
			"uri":"case-c1e32212aa921be8cfef39caf3e381a3.bin"
		}
	]
}
