{
	"asset":{
		"generator":"Khronos glTF Blender I/O v3.6.27",
		"version":"2.0"
	},
	"extensionsUsed":[
		"KHR_materials_specular",
		"KHR_materials_ior"
	],
	"scene":0,
	"scenes":[
		{
			"extras":{
				"blosm":{
					"defaultLevels":[
						{
							"levels":4,
							"weight":10
						},
						{
							"levels":5,
							"weight":40
						},
						{
							"levels":6,
							"weight":10
						}
					]
				}
			},
			"name":"Scene",
			"nodes":[
				0
			]
		}
	],
	"nodes":[
		{
			"mesh":0,
			"name":"cooller"
		}
	],
	"materials":[
		{
			"doubleSided":true,
			"name":"cullerVynt",
			"pbrMetallicRoughness":{
				"baseColorFactor":[
					0.11493618041276932,
					0.11493618041276932,
					0.11493618041276932,
					1
				],
				"metallicFactor":0,
				"roughnessFactor":0.8984962701797485
			}
		},
		{
			"doubleSided":true,
			"extensions":{
				"KHR_materials_specular":{
					"specularColorFactor":[
						0.4724885823086216,
						0.4724885823086216,
						0.4724885823086216
					]
				},
				"KHR_materials_ior":{
					"ior":1.4500000476837158
				}
			},
			"name":"cullerDown",
			"pbrMetallicRoughness":{
				"baseColorFactor":[
					0.035218238830566406,
					0.035218238830566406,
					0.035218238830566406,
					1
				],
				"roughnessFactor":0.8383458852767944
			}
		},
		{
			"doubleSided":true,
			"extensions":{
				"KHR_materials_specular":{
					"specularColorFactor":[
						0.29419099074462024,
						0.29419099074462024,
						0.29419099074462024
					]
				},
				"KHR_materials_ior":{
					"ior":1.4500000476837158
				}
			},
			"name":"cullerCylyndr",
			"pbrMetallicRoughness":{
				"baseColorFactor":[
					0.028842104598879814,
					0.03690392151474953,
					0.05221479758620262,
					1
				],
				"roughnessFactor":0.9360902309417725
			}
		}
	],
	"meshes":[
		{
			"name":"\u0426\u0438\u043b\u0438\u043d\u0434\u0440.001",
			"primitives":[
				{
					"attributes":{
						"POSITION":0,
						"NORMAL":1,
						"TEXCOORD_0":2
					},
					"indices":3,
					"material":0
				},
				{
					"attributes":{
						"POSITION":4,
						"NORMAL":5,
						"TEXCOORD_0":6
					},
					"indices":7,
					"material":1
				},
				{
					"attributes":{
						"POSITION":8,
						"NORMAL":9,
						"TEXCOORD_0":10
					},
					"indices":11,
					"material":2
				}
			]
		}
	],
	"accessors":[
		{
			"bufferView":0,
			"componentType":5126,
			"count":88,
			"max":[
				0.06976650655269623,
				0.18852873146533966,
				0.005000000819563866
			],
			"min":[
				-0.06976654380559921,
				0.04899568483233452,
				-0.005000000819563866
			],
			"type":"VEC3"
		},
		{
			"bufferView":1,
			"componentType":5126,
			"count":88,
			"type":"VEC3"
		},
		{
			"bufferView":2,
			"componentType":5126,
			"count":88,
			"type":"VEC2"
		},
		{
			"bufferView":3,
			"componentType":5123,
			"count":156,
			"type":"SCALAR"
		},
		{
			"bufferView":4,
			"componentType":5126,
			"count":24,
			"max":[
				0.08229469507932663,
				0.017117489129304886,
				0.08229469507932663
			],
			"min":[
				-0.08229470998048782,
				0.0015522271860390902,
				-0.08229470998048782
			],
			"type":"VEC3"
		},
		{
			"bufferView":5,
			"componentType":5126,
			"count":24,
			"type":"VEC3"
		},
		{
			"bufferView":6,
			"componentType":5126,
			"count":24,
			"type":"VEC2"
		},
		{
			"bufferView":7,
			"componentType":5123,
			"count":36,
			"type":"SCALAR"
		},
		{
			"bufferView":8,
			"componentType":5126,
			"count":144,
			"max":[
				0.09999998658895493,
				0.22241728007793427,
				0.04999999701976776
			],
			"min":[
				-0.10000000894069672,
				0.022417288273572922,
				-0.050000011920928955
			],
			"type":"VEC3"
		},
		{
			"bufferView":9,
			"componentType":5126,
			"count":144,
			"type":"VEC3"
		},
		{
			"bufferView":10,
			"componentType":5126,
			"count":144,
			"type":"VEC2"
		},
		{
			"bufferView":11,
			"componentType":5123,
			"count":288,
			"type":"SCALAR"
		}
	],
	"bufferViews":[
		{
			"buffer":0,
			"byteLength":1056,
			"byteOffset":0,
			"target":34962
		},
		{
			"buffer":0,
			"byteLength":1056,
			"byteOffset":1056,
			"target":34962
		},
		{
			"buffer":0,
			"byteLength":704,
			"byteOffset":2112,
			"target":34962
		},
		{
			"buffer":0,
			"byteLength":312,
			"byteOffset":2816,
			"target":34963
		},
		{
			"buffer":0,
			"byteLength":288,
			"byteOffset":3128,
			"target":34962
		},
		{
			"buffer":0,
			"byteLength":288,
			"byteOffset":3416,
			"target":34962
		},
		{
			"buffer":0,
			"byteLength":192,
			"byteOffset":3704,
			"target":34962
		},
		{
			"buffer":0,
			"byteLength":72,
			"byteOffset":3896,
			"target":34963
		},
		{
			"buffer":0,
			"byteLength":1728,
			"byteOffset":3968,
			"target":34962
		},
		{
			"buffer":0,
			"byteLength":1728,
			"byteOffset":5696,
			"target":34962
		},
		{
			"buffer":0,
			"byteLength":1152,
			"byteOffset":7424,
			"target":34962
		},
		{
			"buffer":0,
			"byteLength":576,
			"byteOffset":8576,
			"target":34963
		}
	],
	"buffers":[
		{
			"byteLength":9152,
			"uri":"cooler-4f36256877d1af7a35ba430975a24aa0.bin"
		}
	]
}
