{
	"asset":{
		"generator":"Khronos glTF Blender I/O v3.6.27",
		"version":"2.0"
	},
	"extensionsUsed":[
		"KHR_materials_specular",
		"KHR_materials_ior"
	],
	"scene":0,
	"scenes":[
		{
			"extras":{
				"blosm":{
					"defaultLevels":[
						{
							"levels":4,
							"weight":10
						},
						{
							"levels":5,
							"weight":40
						},
						{
							"levels":6,
							"weight":10
						}
					]
				}
			},
			"name":"Scene",
			"nodes":[
				0
			]
		}
	],
	"nodes":[
		{
			"mesh":0,
			"name":"processor"
		}
	],
	"materials":[
		{
			"doubleSided":true,
			"name":"processor",
			"pbrMetallicRoughness":{
				"baseColorFactor":[
					0.11927641928195953,
					0.11927641928195953,
					0.11927641928195953,
					1
				],
				"roughnessFactor":0.5
			}
		},
		{
			"doubleSided":true,
			"extensions":{
				"KHR_materials_specular":{
					"specularColorFactor":[
						0.237135764977738,
						0.237135764977738,
						0.237135764977738
					]
				},
				"KHR_materials_ior":{
					"ior":1.4500000476837158
				}
			},
			"name":"contactZone",
			"pbrMetallicRoughness":{
				"baseColorFactor":[
					0.04067075252532959,
					0.1375846415758133,
					0.029212990775704384,
					1
				],
				"metallicFactor":0,
				"roughnessFactor":0.5
			}
		},
		{
			"doubleSided":true,
			"name":"golden_pins",
			"pbrMetallicRoughness":{
				"baseColorFactor":[
					0.8000000715255737,
					0.7786519527435303,
					0.09147721529006958,
					1
				],
				"metallicFactor":0,
				"roughnessFactor":0.5
			}
		}
	],
	"meshes":[
		{
			"name":"\u041a\u0443\u0431.002",
			"primitives":[
				{
					"attributes":{
						"POSITION":0,
						"NORMAL":1,
						"TEXCOORD_0":2
					},
					"indices":3,
					"material":0
				},
				{
					"attributes":{
						"POSITION":4,
						"NORMAL":5,
						"TEXCOORD_0":6
					},
					"indices":7,
					"material":1
				},
				{
					"attributes":{
						"POSITION":8,
						"NORMAL":9,
						"TEXCOORD_0":10
					},
					"indices":11,
					"material":2
				}
			]
		}
	],
	"accessors":[
		{
			"bufferView":0,
			"componentType":5126,
			"count":80,
			"max":[
				0.05000000074505806,
				0.007499999832361937,
				0.05000000074505806
			],
			"min":[
				-0.05000000074505806,
				-0.009806275367736816,
				-0.05000000074505806
			],
			"type":"VEC3"
		},
		{
			"bufferView":1,
			"componentType":5126,
			"count":80,
			"type":"VEC3"
		},
		{
			"bufferView":2,
			"componentType":5126,
			"count":80,
			"type":"VEC2"
		},
		{
			"bufferView":3,
			"componentType":5123,
			"count":210,
			"type":"SCALAR"
		},
		{
			"bufferView":4,
			"componentType":5126,
			"count":527,
			"max":[
				0.05000000074505806,
				-0.007499999832361937,
				0.05000000074505806
			],
			"min":[
				-0.05000000074505806,
				-0.009806275367736816,
				-0.05000000074505806
			],
			"type":"VEC3"
		},
		{
			"bufferView":5,
			"componentType":5126,
			"count":527,
			"type":"VEC3"
		},
		{
			"bufferView":6,
			"componentType":5126,
			"count":527,
			"type":"VEC2"
		},
		{
			"bufferView":7,
			"componentType":5123,
			"count":864,
			"type":"SCALAR"
		},
		{
			"bufferView":8,
			"componentType":5126,
			"count":79,
			"max":[
				0.05000000074505806,
				-0.009806275367736816,
				0.05000000074505806
			],
			"min":[
				-0.05000000074505806,
				-0.009806275367736816,
				-0.05000000074505806
			],
			"type":"VEC3"
		},
		{
			"bufferView":9,
			"componentType":5126,
			"count":79,
			"type":"VEC3"
		},
		{
			"bufferView":10,
			"componentType":5126,
			"count":79,
			"type":"VEC2"
		},
		{
			"bufferView":11,
			"componentType":5123,
			"count":192,
			"type":"SCALAR"
		}
	],
	"bufferViews":[
		{
			"buffer":0,
			"byteLength":960,
			"byteOffset":0,
			"target":34962
		},
		{
			"buffer":0,
			"byteLength":960,
			"byteOffset":960,
			"target":34962
		},
		{
			"buffer":0,
			"byteLength":640,
			"byteOffset":1920,
			"target":34962
		},
		{
			"buffer":0,
			"byteLength":420,
			"byteOffset":2560,
			"target":34963
		},
		{
			"buffer":0,
			"byteLength":6324,
			"byteOffset":2980,
			"target":34962
		},
		{
			"buffer":0,
			"byteLength":6324,
			"byteOffset":9304,
			"target":34962
		},
		{
			"buffer":0,
			"byteLength":4216,
			"byteOffset":15628,
			"target":34962
		},
		{
			"buffer":0,
			"byteLength":1728,
			"byteOffset":19844,
			"target":34963
		},
		{
			"buffer":0,
			"byteLength":948,
			"byteOffset":21572,
			"target":34962
		},
		{
			"buffer":0,
			"byteLength":948,
			"byteOffset":22520,
			"target":34962
		},
		{
			"buffer":0,
			"byteLength":632,
			"byteOffset":23468,
			"target":34962
		},
		{
			"buffer":0,
			"byteLength":384,
			"byteOffset":24100,
			"target":34963
		}
	],
	"buffers":[
		{
			"byteLength":24484,
			"uri":"cpuNew-c956d025b0141408ddd222a6765bc01f.bin"
		}
	]
}
