{
	"asset":{
		"generator":"Khronos glTF Blender I/O v3.6.27",
		"version":"2.0"
	},
	"extensionsUsed":[
		"KHR_materials_specular",
		"KHR_materials_ior"
	],
	"scene":0,
	"scenes":[
		{
			"extras":{
				"blosm":{
					"defaultLevels":[
						{
							"levels":4,
							"weight":10
						},
						{
							"levels":5,
							"weight":40
						},
						{
							"levels":6,
							"weight":10
						}
					]
				}
			},
			"name":"Scene",
			"nodes":[
				0
			]
		}
	],
	"nodes":[
		{
			"mesh":0,
			"name":"processor"
		}
	],
	"materials":[
		{
			"doubleSided":true,
			"name":"processor",
			"pbrMetallicRoughness":{
				"baseColorFactor":[
					0.11927641928195953,
					0.11927641928195953,
					0.11927641928195953,
					1
				],
				"roughnessFactor":0.5
			}
		},
		{
			"doubleSided":true,
			"extensions":{
				"KHR_materials_specular":{
					"specularColorFactor":[
						0.237135764977738,
						0.237135764977738,
						0.237135764977738
					]
				},
				"KHR_materials_ior":{
					"ior":1.4500000476837158
				}
			},
			"name":"contactZone",
			"pbrMetallicRoughness":{
				"baseColorFactor":[
					0.04067075252532959,
					0.1375846415758133,
					0.029212990775704384,
					1
				],
				"metallicFactor":0,
				"roughnessFactor":0.5
			}
		},
		{
			"doubleSided":true,
			"extensions":{
				"KHR_materials_specular":{
					"specularColorFactor":[
						0.16938267664981926,
						0.16938267664981926,
						0.16938267664981926
					]
				},
				"KHR_materials_ior":{
					"ior":1.4500000476837158
				}
			},
			"name":"dirt",
			"pbrMetallicRoughness":{
				"baseColorFactor":[
					0.03310273587703705,
					0.015776939690113068,
					0.0048874299973249435,
					1
				],
				"metallicFactor":0,
				"roughnessFactor":0.5
			}
		}
	],
	"meshes":[
		{
			"name":"\u041a\u0443\u0431.002",
			"primitives":[
				{
					"attributes":{
						"POSITION":0,
						"NORMAL":1,
						"TEXCOORD_0":2,
						"TANGENT":3
					},
					"indices":4,
					"material":0
				},
				{
					"attributes":{
						"POSITION":5,
						"NORMAL":6,
						"TEXCOORD_0":7,
						"TANGENT":8
					},
					"indices":9,
					"material":1
				},
				{
					"attributes":{
						"POSITION":10,
						"NORMAL":11,
						"TEXCOORD_0":12,
						"TANGENT":13
					},
					"indices":14,
					"material":2
				}
			]
		}
	],
	"accessors":[
		{
			"bufferView":0,
			"componentType":5126,
			"count":16,
			"max":[
				0.05000000074505806,
				0.007499999832361937,
				0.05000000074505806
			],
			"min":[
				-0.05000000074505806,
				-0.007499999832361937,
				-0.05000000074505806
			],
			"type":"VEC3"
		},
		{
			"bufferView":1,
			"componentType":5126,
			"count":16,
			"type":"VEC3"
		},
		{
			"bufferView":2,
			"componentType":5126,
			"count":16,
			"type":"VEC2"
		},
		{
			"bufferView":3,
			"componentType":5126,
			"count":16,
			"type":"VEC4"
		},
		{
			"bufferView":4,
			"componentType":5123,
			"count":24,
			"type":"SCALAR"
		},
		{
			"bufferView":5,
			"componentType":5126,
			"count":4,
			"max":[
				0.05000000074505806,
				-0.007499999832361937,
				0.05000000074505806
			],
			"min":[
				-0.05000000074505806,
				-0.007499999832361937,
				-0.05000000074505806
			],
			"type":"VEC3"
		},
		{
			"bufferView":6,
			"componentType":5126,
			"count":4,
			"type":"VEC3"
		},
		{
			"bufferView":7,
			"componentType":5126,
			"count":4,
			"type":"VEC2"
		},
		{
			"bufferView":8,
			"componentType":5126,
			"count":4,
			"type":"VEC4"
		},
		{
			"bufferView":9,
			"componentType":5123,
			"count":6,
			"type":"SCALAR"
		},
		{
			"bufferView":10,
			"componentType":5126,
			"count":4,
			"max":[
				0.05000000074505806,
				0.007499999832361937,
				0.05000000074505806
			],
			"min":[
				-0.05000000074505806,
				0.007499999832361937,
				-0.05000000074505806
			],
			"type":"VEC3"
		},
		{
			"bufferView":11,
			"componentType":5126,
			"count":4,
			"type":"VEC3"
		},
		{
			"bufferView":12,
			"componentType":5126,
			"count":4,
			"type":"VEC2"
		},
		{
			"bufferView":13,
			"componentType":5126,
			"count":4,
			"type":"VEC4"
		},
		{
			"bufferView":14,
			"componentType":5123,
			"count":6,
			"type":"SCALAR"
		}
	],
	"bufferViews":[
		{
			"buffer":0,
			"byteLength":192,
			"byteOffset":0,
			"target":34962
		},
		{
			"buffer":0,
			"byteLength":192,
			"byteOffset":192,
			"target":34962
		},
		{
			"buffer":0,
			"byteLength":128,
			"byteOffset":384,
			"target":34962
		},
		{
			"buffer":0,
			"byteLength":256,
			"byteOffset":512,
			"target":34962
		},
		{
			"buffer":0,
			"byteLength":48,
			"byteOffset":768,
			"target":34963
		},
		{
			"buffer":0,
			"byteLength":48,
			"byteOffset":816,
			"target":34962
		},
		{
			"buffer":0,
			"byteLength":48,
			"byteOffset":864,
			"target":34962
		},
		{
			"buffer":0,
			"byteLength":32,
			"byteOffset":912,
			"target":34962
		},
		{
			"buffer":0,
			"byteLength":64,
			"byteOffset":944,
			"target":34962
		},
		{
			"buffer":0,
			"byteLength":12,
			"byteOffset":1008,
			"target":34963
		},
		{
			"buffer":0,
			"byteLength":48,
			"byteOffset":1020,
			"target":34962
		},
		{
			"buffer":0,
			"byteLength":48,
			"byteOffset":1068,
			"target":34962
		},
		{
			"buffer":0,
			"byteLength":32,
			"byteOffset":1116,
			"target":34962
		},
		{
			"buffer":0,
			"byteLength":64,
			"byteOffset":1148,
			"target":34962
		},
		{
			"buffer":0,
			"byteLength":12,
			"byteOffset":1212,
			"target":34963
		}
	],
	"buffers":[
		{
			"byteLength":1224,
			"uri":"cpuOld-4ce4d78d824fb702e9006aea9ebeb39e.bin"
		}
	]
}
