{
	"asset":{
		"generator":"Khronos glTF Blender I/O v3.6.27",
		"version":"2.0"
	},
	"scene":0,
	"scenes":[
		{
			"extras":{
				"blosm":{
					"defaultLevels":[
						{
							"levels":4,
							"weight":10
						},
						{
							"levels":5,
							"weight":40
						},
						{
							"levels":6,
							"weight":10
						}
					]
				}
			},
			"name":"Scene",
			"nodes":[
				0
			]
		}
	],
	"nodes":[
		{
			"mesh":0,
			"name":"pasta"
		}
	],
	"materials":[
		{
			"doubleSided":true,
			"name":"line",
			"pbrMetallicRoughness":{
				"baseColorFactor":[
					0.16200511157512665,
					0.40433889627456665,
					0.8000000715255737,
					1
				],
				"metallicFactor":0,
				"roughnessFactor":0.5
			}
		},
		{
			"doubleSided":true,
			"name":"pasta",
			"pbrMetallicRoughness":{
				"metallicFactor":0,
				"roughnessFactor":0.2431192696094513
			}
		},
		{
			"doubleSided":true,
			"name":"cop",
			"pbrMetallicRoughness":{
				"baseColorFactor":[
					0.2630520462989807,
					0.432184636592865,
					0.5457157492637634,
					1
				],
				"metallicFactor":0,
				"roughnessFactor":0.5
			}
		}
	],
	"meshes":[
		{
			"name":"Cylinder",
			"primitives":[
				{
					"attributes":{
						"POSITION":0,
						"NORMAL":1,
						"TEXCOORD_0":2
					},
					"indices":3,
					"material":0
				},
				{
					"attributes":{
						"POSITION":4,
						"NORMAL":5,
						"TEXCOORD_0":6
					},
					"indices":7,
					"material":1
				},
				{
					"attributes":{
						"POSITION":8,
						"NORMAL":9,
						"TEXCOORD_0":10
					},
					"indices":11,
					"material":2
				}
			]
		}
	],
	"accessors":[
		{
			"bufferView":0,
			"componentType":5126,
			"count":16,
			"max":[
				-0.013282923959195614,
				0.012773028574883938,
				0.019999997690320015
			],
			"min":[
				-0.03537529706954956,
				-0.012773028574883938,
				-0.019999995827674866
			],
			"type":"VEC3"
		},
		{
			"bufferView":1,
			"componentType":5126,
			"count":16,
			"type":"VEC3"
		},
		{
			"bufferView":2,
			"componentType":5126,
			"count":16,
			"type":"VEC2"
		},
		{
			"bufferView":3,
			"componentType":5123,
			"count":24,
			"type":"SCALAR"
		},
		{
			"bufferView":4,
			"componentType":5126,
			"count":46,
			"max":[
				0.05000000447034836,
				0.019999999552965164,
				0.019999997690320015
			],
			"min":[
				-0.05000000074505806,
				-0.019999999552965164,
				-0.019999997690320015
			],
			"type":"VEC3"
		},
		{
			"bufferView":5,
			"componentType":5126,
			"count":46,
			"type":"VEC3"
		},
		{
			"bufferView":6,
			"componentType":5126,
			"count":46,
			"type":"VEC2"
		},
		{
			"bufferView":7,
			"componentType":5123,
			"count":72,
			"type":"SCALAR"
		},
		{
			"bufferView":8,
			"componentType":5126,
			"count":30,
			"max":[
				0.05797025188803673,
				0.010000000707805157,
				0.010000000707805157
			],
			"min":[
				0.0479702465236187,
				-0.010000000707805157,
				-0.010000000707805157
			],
			"type":"VEC3"
		},
		{
			"bufferView":9,
			"componentType":5126,
			"count":30,
			"type":"VEC3"
		},
		{
			"bufferView":10,
			"componentType":5126,
			"count":30,
			"type":"VEC2"
		},
		{
			"bufferView":11,
			"componentType":5123,
			"count":48,
			"type":"SCALAR"
		}
	],
	"bufferViews":[
		{
			"buffer":0,
			"byteLength":192,
			"byteOffset":0,
			"target":34962
		},
		{
			"buffer":0,
			"byteLength":192,
			"byteOffset":192,
			"target":34962
		},
		{
			"buffer":0,
			"byteLength":128,
			"byteOffset":384,
			"target":34962
		},
		{
			"buffer":0,
			"byteLength":48,
			"byteOffset":512,
			"target":34963
		},
		{
			"buffer":0,
			"byteLength":552,
			"byteOffset":560,
			"target":34962
		},
		{
			"buffer":0,
			"byteLength":552,
			"byteOffset":1112,
			"target":34962
		},
		{
			"buffer":0,
			"byteLength":368,
			"byteOffset":1664,
			"target":34962
		},
		{
			"buffer":0,
			"byteLength":144,
			"byteOffset":2032,
			"target":34963
		},
		{
			"buffer":0,
			"byteLength":360,
			"byteOffset":2176,
			"target":34962
		},
		{
			"buffer":0,
			"byteLength":360,
			"byteOffset":2536,
			"target":34962
		},
		{
			"buffer":0,
			"byteLength":240,
			"byteOffset":2896,
			"target":34962
		},
		{
			"buffer":0,
			"byteLength":96,
			"byteOffset":3136,
			"target":34963
		}
	],
	"buffers":[
		{
			"byteLength":3232,
			"uri":"pasta-8d9fe302168faabd08d9c92108ea1ec2.bin"
		}
	]
}
